Coordinates
version=1
nRows=14
nColumns=24
inDegrees=yes

Units are S.I. units (second, meters, Newtons, ...)
Angles are in degrees.

endheader
time	pelvis_tilt	pelvis_list	pelvis_rotation	pelvis_tx	pelvis_ty	pelvis_tz	hip_flexion_r	hip_adduction_r	hip_rotation_r	knee_angle_r	ankle_angle_r	subtalar_angle_r	mtp_angle_r	hip_flexion_l	hip_adduction_l	hip_rotation_l	knee_angle_l	ankle_angle_l	subtalar_angle_l	mtp_angle_l	lumbar_extension	lumbar_bending	lumbar_rotation
      3.88500000	     35.14407876	      9.75057834	      6.72787034	     -0.84455997	      0.65341299	     -0.26395274	    -13.21082770	     -7.58847427	    -15.36801240	     -3.94297767	     11.31860082	      7.82895778	      0.00000000	    -45.40253705	      2.42735076	      2.65811612	    -21.17020678	     25.71187651	     16.11392879	      0.00000000	    -65.22412624	     -0.92041703	    -15.75484518
      3.89000000	     35.26406263	      9.68297915	      6.83101563	     -0.83844183	      0.65316641	     -0.26349194	    -13.27782026	     -7.44513755	    -14.97800006	     -4.54058855	     11.04546633	      7.96407983	      0.00000000	    -45.53317824	      2.07967856	      2.80722983	    -22.26928597	     25.32815066	     16.39361391	      0.00000000	    -65.24030409	     -0.72426537	    -15.70612061
      3.89500000	     35.40652639	      9.57031567	      6.97401754	     -0.83230494	      0.65304618	     -0.26304091	    -13.32936594	     -7.23827484	    -14.59707524	     -5.36186495	     10.73796938	      7.97654151	      0.00000000	    -45.62449515	      1.66034110	      2.92864067	    -23.46526987	     24.84846445	     16.72374865	      0.00000000	    -65.27675404	     -0.46395369	    -15.63852857
      3.90000000	     35.55829426	      9.41676691	      7.14699597	     -0.82613863	      0.65303010	     -0.26257302	    -13.36252282	     -6.97124596	    -14.19919726	     -6.35575477	     10.38694137	      7.85758811	      0.00000000	    -45.65962119	      1.17814589	      2.99498466	    -24.76398407	     24.26883990	     17.09327746	      0.00000000	    -65.31480407	     -0.16551306	    -15.53370557
      3.90500000	     35.65914654	      9.18038854	      7.31495392	     -0.81978808	      0.65307168	     -0.26201457	    -13.30970045	     -6.59956174	    -13.66459839	     -7.49559422	     10.05340195	      7.46309318	      0.00000000	    -45.60029883	      0.62435811	      2.93054221	    -26.12573103	     23.53142407	     17.52100479	      0.00000000	    -65.25855387	      0.15576234	    -15.39330572
      3.91000000	     35.86849679	      8.97341225	      7.43867787	     -0.81362072	      0.65321420	     -0.26153597	    -13.32415037	     -6.28695965	    -13.34500720	     -8.79567260	      9.73423040	      7.47826722	      0.00000000	    -45.58195489	      0.14023840	      2.90050228	    -27.58971643	     22.65150988	     17.77831525	      0.00000000	    -65.35327692	      0.46595532	    -15.24235553
      3.91500000	     35.84565171	      8.64793165	      7.35785107	     -0.80731218	      0.65321609	     -0.26076034	    -12.92793112	     -5.90839055	    -12.52719820	    -10.32807667	      9.44082280	      6.99203452	      0.00000000	    -45.27275493	     -0.27271200	      2.51409361	    -29.11994288	     21.63157132	     18.11492536	      0.00000000	    -65.19621386	      0.61029644	    -14.91745385
      3.92000000	     36.06481005	      8.41471903	      7.53697984	     -0.80096215	      0.65349975	     -0.26024622	    -13.01121434	     -5.52271433	    -12.32846569	    -11.67115861	      9.19728515	      6.99002800	      0.00000000	    -45.15808320	     -0.83575368	      2.41002306	    -30.73468664	     20.40180336	     18.33204078	      0.00000000	    -65.25927117	      0.95559141	    -14.75461457
      3.92500000	     36.10293645	      8.10128944	      7.66136114	     -0.79453074	      0.65368123	     -0.25950842	    -12.82694086	     -5.04873889	    -11.84126784	    -13.11663692	      8.91588360	      6.46550657	      0.00000000	    -44.77857682	     -1.42432036	      2.08094174	    -32.44471994	     19.11024740	     18.57738511	      0.00000000	    -65.13642055	      1.23439594	    -14.53852588
      3.93000000	     36.30403510	      7.86687898	      7.79878638	     -0.78810050	      0.65403662	     -0.25884062	    -12.92485492	     -4.64681058	    -11.66855923	    -14.44392468	      8.77737839	      6.45492815	      0.00000000	    -44.54340670	     -1.98399429	      1.81219290	    -34.15577696	     17.47698322	     18.69781672	      0.00000000	    -65.17429968	      1.50820029	    -14.37249703
      3.93500000	     36.16317732	      7.54752262	      7.69742036	     -0.78169743	      0.65411166	     -0.25788945	    -12.49925391	     -4.23973549	    -11.02414764	    -15.91634667	      8.70525538	      5.94854009	      0.00000000	    -43.84538144	     -2.38129497	      1.27162632	    -36.02176696	     15.76331279	     18.73273567	      0.00000000	    -64.89430046	      1.57576631	    -14.09197557
      3.94000000	     36.33562970	      7.27491135	      7.84172134	     -0.77523646	      0.65450712	     -0.25720227	    -12.67039264	     -3.77179147	    -10.92593428	    -17.05068870	      8.65872916	      5.80681596	      0.00000000	    -43.45207960	     -2.97559458	      0.90880496	    -37.85577698	     13.79914212	     18.55979429	      0.00000000	    -64.89320910	      1.86851026	    -13.92219430
      3.94500000	     36.28774591	      7.01806565	      7.89528035	     -0.76877164	      0.65476647	     -0.25631390	    -12.57020580	     -3.34470165	    -10.56685596	    -18.21094622	      8.76085723	      5.43491438	      0.00000000	    -42.74818128	     -3.46708847	      0.47345944	    -39.76186651	     11.66024832	     18.30062791	      0.00000000	    -64.68391566	      2.01444947	    -13.76820678
      3.95000000	     36.43727375	      6.73099318	      8.03287374	     -0.76228195	      0.65522718	     -0.25556854	    -12.85247607	     -2.83505732	    -10.50604977	    -19.08388431	      8.87903929	      5.26528471	      0.00000000	    -42.22833291	     -4.08068523	      0.03711549	    -41.62432595	      9.30692227	     17.86147881	      0.00000000	    -64.65265173	      2.29502541	    -13.60040119
